HIERARCHY
ROOT root
{
	OFFSET	0	13.1	24.9
	CHANNELS 6  Xposition Yposition Zposition Xrotation Yrotation Zrotation
	JOINT spine_1
	{
		OFFSET	0	9.99999	0
		CHANNELS 3  Xrotation Yrotation Zrotation
		JOINT spine_2
		{
			OFFSET	0	112	-10
			CHANNELS 3  Xrotation Yrotation Zrotation
			JOINT spine_3
			{
				OFFSET	0	206.5	19.3
				CHANNELS 3  Xrotation Yrotation Zrotation
				JOINT spine_4
				{
					OFFSET	0	110.4	14.6
					CHANNELS 3  Xrotation Yrotation Zrotation
					JOINT neck_1
					{
						OFFSET	0	71.8	-50.3
						CHANNELS 3  Xrotation Yrotation Zrotation
						JOINT neck_2
						{
							OFFSET	0	86.2	-25.8
							CHANNELS 3  Xrotation Yrotation Zrotation
							JOINT head_ee
							{
								OFFSET	0	179.8	-8.7
								CHANNELS 3  Xrotation Yrotation Zrotation
								End Site
								{
									OFFSET	1	0	0
								}
							}
						}
					}
					JOINT left_clavicle
					{
						OFFSET	-43.2	22.4	-70.8
						CHANNELS 3  Xrotation Yrotation Zrotation
						JOINT left_shoulder
						{
							OFFSET	-93.9	-5.79999	48.7
							CHANNELS 3  Xrotation Yrotation Zrotation
							JOINT left_elbow
							{
								OFFSET	-291.4	-30.8	15.2
								CHANNELS 3  Xrotation Yrotation Zrotation
								JOINT left_lowarm_twist
								{
									OFFSET	-110.7	-3.89999	13.6
									CHANNELS 3  Xrotation Yrotation Zrotation
									JOINT left_hand
									{
										OFFSET	-110.7	-3.89999	13.6
										CHANNELS 3  Xrotation Yrotation Zrotation
										JOINT left_ee
										{
											OFFSET	-80.8	-5.10001	12.1
											CHANNELS 3  Xrotation Yrotation Zrotation
											End Site
											{
												OFFSET	1	0	0
											}
										}
									}
								}
							}
						}
					}
					JOINT right_clavicle
					{
						OFFSET	43.2	22.4	-70.8
						CHANNELS 3  Xrotation Yrotation Zrotation
						JOINT right_shoulder
						{
							OFFSET	93.9	-5.79999	48.7
							CHANNELS 3  Xrotation Yrotation Zrotation
							JOINT right_elbow
							{
								OFFSET	291.4	-30.8	15.2
								CHANNELS 3  Xrotation Yrotation Zrotation
								JOINT right_lowarm_twist
								{
									OFFSET	110.7	-3.89999	13.6
									CHANNELS 3  Xrotation Yrotation Zrotation
									JOINT right_hand
									{
										OFFSET	110.7	-3.89999	13.6
										CHANNELS 3  Xrotation Yrotation Zrotation
										JOINT right_ee
										{
											OFFSET	80.8	-5.10001	12.1
											CHANNELS 3  Xrotation Yrotation Zrotation
											End Site
											{
												OFFSET	1	0	0
											}
										}
									}
								}
							}
						}
					}
				}
			}
		}
	}
	JOINT left_hip
	{
		OFFSET	-82.8	-127.5	0.300001
		CHANNELS 3  Xrotation Yrotation Zrotation
		JOINT left_knee
		{
			OFFSET	-28.2	-396.7	2.2
			CHANNELS 3  Xrotation Yrotation Zrotation
			JOINT left_ankle
			{
				OFFSET	-11.7	-411.3	35.4
				CHANNELS 3  Xrotation Yrotation Zrotation
				JOINT left_toes
				{
					OFFSET	0	-60	-88.6
					CHANNELS 3  Xrotation Yrotation Zrotation
					JOINT left_foot_ee
					{
						OFFSET	-22.5	-16.5	-42.2
						CHANNELS 3  Xrotation Yrotation Zrotation
						End Site
						{
							OFFSET	1	0	0
						}
					}
				}
			}
		}
	}
	JOINT right_hip
	{
		OFFSET	82.8	-127.5	0.300001
		CHANNELS 3  Xrotation Yrotation Zrotation
		JOINT right_knee
		{
			OFFSET	28.2	-396.7	2.2
			CHANNELS 3  Xrotation Yrotation Zrotation
			JOINT right_ankle
			{
				OFFSET	11.7	-411.3	35.4
				CHANNELS 3  Xrotation Yrotation Zrotation
				JOINT right_toes
				{
					OFFSET	0	-60	-88.6
					CHANNELS 3  Xrotation Yrotation Zrotation
					JOINT right_foot_ee
					{
						OFFSET	22.5	-16.5	-42.2
						CHANNELS 3  Xrotation Yrotation Zrotation
						End Site
						{
							OFFSET	1	0	0
						}
					}
				}
			}
		}
	}
}
MOTION
Frames: 15
Frame Time: 0.02
568.042 737.388 -528.639 169.875 -83.4186 171.204 -0.958939 0.0328409 -0.813 -0.958575 0.084506 -0.809263 -0.959565 0.265642 -0.769082 -0.960363 0.14085 -0.80138 -9.86387 8.11766 11.0437 -9.54753 7.76459 12.7312 -0.0 0.0 -0.0 0.937579 22.0311 3.87948 -8.35688 -31.9683 66.0107 1.19757 -30.677 0.328493 20.8421 0.257604 -2.63528 -0.0105117 13.3756 5.43181 -0.0 0.0 -0.0 8.52815 23.6764 -15.8206 -10.5985 3.2694 -66.9801 0.465528 12.9861 -0.0529831 -12.7307 0.618303 -1.50239 -0.9415 -22.2252 -3.40385 0.0 0.0 0.0 -1.19179 34.7814 -8.54316 -5.61092 0.190015 0.839803 14.8809 -14.0456 -2.23328 -16.6457 0.0 0.0 -0.0 0.0 -0.0 4.9323 17.754 -7.13435 -23.4413 -0.238927 -3.56429 39.0826 -11.3553 4.80608 -31.2802 0.0 0.0 0.0 0.0 0.0 
575.29 739.918 -523.478 168.57 -83.9463 170.143 -0.905494 0.190263 -0.692898 -0.905257 0.233967 -0.679388 -0.907978 0.381251 -0.609064 -0.908386 0.280278 -0.661629 -10.7421 8.24966 12.0939 -10.3593 7.51711 13.8169 -0.0 0.0 -0.0 0.763867 21.0802 3.54993 -9.34609 -28.8101 66.4005 1.09743 -28.5292 0.279016 22.3906 0.238258 -2.83212 0.00786804 12.9195 5.36614 -0.0 0.0 -0.0 8.57244 23.2181 -15.9609 -6.37528 3.93044 -65.8355 0.542665 15.0467 -0.071669 -12.6223 0.611645 -1.49022 -1.09447 -22.5358 -2.64928 0.0 0.0 0.0 1.65874 38.3063 -11.0225 -3.84855 0.139214 0.574116 12.065 -13.0787 -1.82109 -18.4924 0.0 0.0 -0.0 0.0 -0.0 3.15323 13.7236 -6.88912 -22.3939 -0.259526 -3.40489 37.7576 -11.0296 4.68201 -31.9883 0.0 0.0 0.0 0.0 0.0 
575.126 746.262 -520.339 161.073 -84.8575 162.455 -1.10052 0.032123 -0.48832 -1.10039 0.0631306 -0.485287 -1.10085 0.172551 -0.457947 -1.10113 0.0980619 -0.479451 -13.2602 7.15204 10.8914 -12.9565 6.81841 12.4984 -0.0 0.0 -0.0 0.665996 20.5642 3.36158 -10.2987 -28.1788 66.8625 1.04621 -27.3954 0.255001 22.4436 0.237501 -2.83885 -0.00335005 14.5266 5.93305 -0.0 0.0 -0.0 8.67457 23.856 -16.1279 -4.29438 5.05564 -64.9217 0.622393 17.1354 -0.0937703 -13.3123 0.654412 -1.56747 -1.22507 -22.9001 -2.05346 0.0 0.0 0.0 2.02862 35.9627 -10.3139 -6.5601 0.213981 0.983495 12.8017 -15.0903 -1.95346 -17.3927 0.0 0.0 -0.0 0.0 -0.0 2.4763 13.8512 -7.34234 -22.7858 -0.252159 -3.46458 37.0947 -9.52652 4.6096 -31.8073 0.0 0.0 0.0 0.0 0.0 
579.231 745.899 -523.943 154.852 -85.3226 155.722 -1.24767 -0.187407 -0.265663 -1.24765 -0.170123 -0.27705 -1.24678 -0.101398 -0.308896 -1.24688 -0.14891 -0.289005 -13.5399 5.93235 8.90387 -13.3392 5.79027 10.268 -0.0 0.0 -0.0 0.604039 19.5362 3.1741 -12.0249 -27.9582 68.4359 0.901608 -24.0667 0.192195 21.9392 0.244446 -2.7748 -0.262807 17.5228 5.51838 -0.0 0.0 -0.0 8.69656 23.6947 -16.1917 -1.27801 6.25831 -63.6296 0.702741 19.1939 -0.118823 -13.7343 0.681023 -1.61446 -1.31994 -22.0962 -1.14854 0.0 0.0 0.0 2.12376 34.1098 -9.81645 -9.23208 0.26862 1.38984 14.8364 -17.3799 -2.28331 -16.4764 0.0 0.0 -0.0 0.0 -0.0 1.53245 15.9308 -6.72717 -23.1149 -0.245658 -3.51466 37.7701 -7.10662 4.66193 -31.0836 0.0 0.0 0.0 0.0 0.0 
584.079 740.551 -526.032 151.546 -85.4868 151.974 -1.19927 -0.238388 -0.0790957 -1.1993 -0.232872 -0.0941047 -1.19892 -0.204898 -0.145265 -1.19888 -0.225268 -0.111082 -13.6532 5.53233 7.05705 -13.5392 6.19131 8.40302 -0.0 0.0 -0.0 0.689954 18.5299 3.20722 -13.6656 -27.7953 68.5858 0.79439 -21.4804 0.150681 22.1516 0.241592 -2.80177 -0.238618 18.5485 6.07238 -0.0 0.0 -0.0 8.93047 25.1945 -16.5647 0.823743 7.34195 -62.3165 0.785313 21.257 -0.147374 -14.4751 0.728583 -1.69648 -1.58254 -20.1207 1.29103 0.0 0.0 0.0 2.4067 30.647 -9.26625 -12.5827 0.310267 1.90221 21.522 -19.9483 -3.27094 -14.5625 0.0 0.0 -0.0 0.0 -0.0 0.725051 15.8183 -5.70166 -23.4318 -0.239128 -3.56284 38.4626 -4.97478 4.72223 -30.3764 0.0 0.0 0.0 0.0 0.0 
587.433 739.428 -524.965 150.858 -85.6904 150.934 -1.15565 -0.092864 0.118716 -1.15565 -0.10023 0.112566 -1.15585 -0.12342 0.0865134 -1.15585 -0.108208 0.10492 -13.9841 4.72859 5.39643 -13.9257 5.72248 6.59976 -0.0 0.0 -0.0 0.749516 17.8723 3.2361 -14.9761 -27.7133 68.9836 0.690385 -18.8806 0.114792 21.9686 0.244058 -2.77853 -0.453969 20.116 5.40332 -0.0 0.0 -0.0 9.13335 25.2797 -17.0066 2.73099 8.32596 -61.4305 0.934968 24.8511 -0.206008 -14.7921 0.749255 -1.73139 -1.77803 -18.3449 3.29421 0.0 0.0 0.0 4.42064 27.4269 -9.90491 -14.6333 0.320952 2.21663 25.002 -21.5855 -3.77846 -13.5399 0.0 0.0 -0.0 0.0 -0.0 -0.224333 17.4402 -5.45231 -22.6497 -0.254763 -3.44386 40.3546 -2.60782 4.8923 -29.8608 0.0 0.0 0.0 0.0 0.0 
596.605 739.61 -523.359 148.178 -84.9241 148.203 -1.27789 0.151702 0.234959 -1.27787 0.136444 0.244136 -1.27725 0.0761055 0.269123 -1.27733 0.117653 0.253726 -14.0418 4.26545 3.92095 -14.0227 5.74611 5.06073 -0.0 0.0 -0.0 0.586103 17.6547 2.96551 -16.9943 -27.5371 69.0884 0.617664 -17.0128 0.0923818 21.8259 0.24593 -2.76039 -0.577975 21.2483 5.12585 -0.0 0.0 -0.0 9.18063 25.6541 -17.0733 4.47081 9.16878 -60.6204 1.03508 27.1458 -0.2499 -15.1681 0.774027 -1.77265 -1.9461 -16.9447 4.98885 0.0 0.0 0.0 6.76951 24.9602 -9.65827 -16.3147 0.321314 2.4746 26.82 -22.7747 -4.05257 -13.2777 0.0 0.0 -0.0 0.0 -0.0 -1.73739 17.9033 -5.47934 -22.4833 -0.257882 -3.41851 41.1482 -1.10282 4.96607 -29.2124 0.0 0.0 0.0 0.0 0.0 
608.071 740.195 -522.111 142.535 -84.2697 142.574 -1.57092 0.400587 0.183508 -1.57099 0.388098 0.208626 -1.56957 0.327639 0.294616 -1.5695 0.370056 0.239174 -14.008 3.89341 3.16563 -14.0019 5.49452 4.22658 -0.0 0.0 -0.0 0.161491 17.8018 2.33126 -18.5219 -27.3274 69.4675 0.562636 -15.574 0.0769422 21.8481 0.245641 -2.76323 -0.646943 22.0699 5.05542 -0.0 0.0 -0.0 9.23068 26.0926 -17.1387 6.12702 9.97167 -59.6938 1.14331 29.5246 -0.30128 -15.3633 0.787 -1.79401 -2.03541 -15.7915 6.10142 0.0 0.0 0.0 8.8999 23.1646 -9.21841 -16.9796 0.319369 2.5766 30.9885 -24.8556 -4.6475 -12.0704 0.0 0.0 -0.0 0.0 -0.0 -2.75003 19.5796 -5.309 -24.0486 -0.22565 -3.65654 41.523 0.125104 5.00514 -28.7513 0.0 0.0 0.0 0.0 0.0 
619.119 738.958 -521.284 145.458 -83.2272 145.407 -1.71502 0.62353 0.266778 -1.71518 0.605291 0.305915 -1.71195 0.514519 0.441851 -1.71176 0.577844 0.355047 -12.8507 4.20233 2.22761 -12.8638 6.58739 3.3684 -0.0 0.0 -0.0 -0.337088 17.946 1.58736 -19.9454 -27.2452 70.5005 0.516779 -14.3594 0.0650986 20.9794 0.256104 -2.65275 -0.942393 25.8411 4.91784 -0.0 0.0 -0.0 9.64855 26.4321 -18.0325 8.4801 10.9178 -58.8531 1.31921 33.1629 -0.392825 -16.2803 0.848893 -1.89375 -2.3711 -14.8447 8.66738 0.0 0.0 0.0 15.6092 21.3001 -9.75131 -20.9018 0.283829 3.17722 28.8662 -22.6217 -4.29689 -11.756 0.0 0.0 -0.0 0.0 -0.0 -9.53048 20.1045 -4.56735 -14.5481 -0.320732 -2.20356 40.2719 -1.49116 4.88998 -28.2816 0.0 0.0 0.0 0.0 0.0 
630.224 730.807 -517.484 131.766 -83.4943 131.782 -1.7037 0.432661 0.532131 -1.70363 0.397924 0.558583 -1.69951 0.252858 0.63751 -1.69991 0.350365 0.589578 -13.6629 3.63713 2.24994 -13.6703 5.54514 3.26124 -0.0 0.0 -0.0 -0.550776 18.2377 1.29908 -22.6549 -26.9312 69.703 0.502913 -13.9894 0.0617032 20.7176 0.258929 -2.61943 -1.21844 29.0295 4.74699 -0.0 0.0 -0.0 9.96252 27.3944 -18.6258 10.1651 12.3785 -57.9617 1.56463 37.7756 -0.535352 -16.8886 0.890838 -1.95937 -2.37423 -13.3286 9.45715 0.0 0.0 0.0 18.2075 19.4877 -10.4479 -23.8136 0.230902 3.62087 28.862 -23.0994 -4.31623 -11.1452 0.0 0.0 -0.0 0.0 -0.0 -13.1546 20.1591 -4.85992 -11.0776 -0.295267 -1.67177 40.3451 -0.543708 4.90171 -27.6312 0.0 0.0 0.0 0.0 0.0 
636.35 731.222 -516.501 135.547 -83.0024 135.759 -1.73237 0.50054 0.637214 -1.73226 0.458979 0.667772 -1.72658 0.28569 0.758259 -1.72716 0.401855 0.703628 -13.8516 3.70126 2.34178 -13.859 5.62188 3.37763 -0.0 0.0 -0.0 -0.661856 18.2317 1.12987 -23.616 -26.6428 69.9202 0.472006 -13.1606 0.0544486 20.8379 0.25765 -2.63474 -1.32437 28.9908 4.16132 -0.0 0.0 -0.0 10.0902 27.7319 -18.8718 11.8613 12.5101 -56.9118 1.76539 41.1666 -0.663024 -17.6001 0.940776 -2.03556 -2.50675 -11.8816 11.0449 0.0 0.0 0.0 19.5115 18.616 -10.906 -25.8771 0.179777 3.93338 30.0462 -22.7819 -4.44343 -10.729 0.0 0.0 -0.0 0.0 -0.0 -16.1048 19.8313 -4.11978 -4.9509 -0.171948 -0.740125 39.5698 0.489566 4.84255 -28.4032 0.0 0.0 0.0 0.0 0.0 
644.702 734.483 -513.213 137.142 -82.8892 137.302 -1.84415 0.473951 0.775445 -1.84392 0.423649 0.80403 -1.83749 0.217046 0.882511 -1.8384 0.353693 0.837162 -14.254 3.77375 2.49834 -14.2611 5.68878 3.56911 -0.0 0.0 -0.0 -1.01969 18.2679 0.592225 -24.2672 -26.5975 70.1374 0.460586 -12.8528 0.0518783 20.6901 0.259217 -2.61593 -1.44089 30.0761 4.01466 -0.0 0.0 -0.0 10.1842 27.9178 -19.0601 13.4487 13.3152 -56.1795 1.95629 44.0958 -0.792358 -18.276 0.989089 -2.10736 -2.58326 -10.5366 12.2333 0.0 0.0 0.0 22.3028 17.5502 -11.1635 -26.4063 0.164853 4.01322 29.8099 -21.991 -4.38289 -10.5679 0.0 0.0 -0.0 0.0 -0.0 -19.3218 20.5994 -3.30995 1.67513 0.0725963 0.246788 39.6416 1.19234 4.85483 -28.4398 0.0 0.0 0.0 0.0 0.0 
652.645 731.652 -514.793 133.324 -83.3293 133.533 -1.98396 0.207542 0.942658 -1.98347 0.14714 0.953953 -1.98046 -0.0899117 0.961037 -1.98174 0.0629873 0.963176 -13.3935 3.51387 1.83141 -13.405 5.55477 2.81251 -0.0 0.0 -0.0 -1.01153 18.5096 0.638565 -25.2152 -26.4282 70.69 0.398359 -11.1633 0.0389306 20.5207 0.260952 -2.59437 -1.42993 29.1927 3.68378 -0.0 0.0 -0.0 10.2489 27.2252 -19.2853 16.5362 14.011 -56.6174 2.20102 47.4679 -0.967833 -18.7423 1.02292 -2.15657 -2.64004 -9.40785 13.1883 0.0 0.0 0.0 24.2354 17.0583 -10.647 -26.0601 0.174698 3.96102 28.9444 -21.0128 -4.24269 -10.8796 0.0 0.0 -0.0 0.0 -0.0 -21.23 20.0243 -3.41867 4.27221 0.199357 0.625019 38.1585 -1.60805 4.70392 -29.0313 0.0 0.0 0.0 0.0 0.0 
668.549 721.786 -518.265 125.305 -83.7978 125.488 -1.83849 0.303433 0.906846 -1.83806 0.245115 0.924314 -1.83354 0.014799 0.956145 -1.83478 0.165612 0.941811 -11.2365 2.89149 -0.323585 -11.2504 5.68021 0.464295 -0.0 0.0 -0.0 -1.6032 18.3732 -0.276563 -26.2238 -26.7014 71.6814 0.37314 -10.4727 0.0341973 18.6443 0.275914 -2.35517 -1.5722 29.0712 2.86794 -0.0 0.0 -0.0 10.4645 28.1692 -19.6571 20.1572 15.1357 -55.9297 2.12502 46.4641 -0.912274 -20.0691 1.12136 -2.29506 -3.1869 -10.5355 16.2235 0.0 0.0 0.0 24.3535 15.4521 -9.99152 -24.0873 0.22477 3.66241 25.4873 -17.014 -3.69502 -10.4019 0.0 0.0 -0.0 0.0 -0.0 -22.7645 18.8672 -3.63423 4.23065 0.197193 0.619011 39.0492 -3.49306 4.77637 -25.5905 0.0 0.0 0.0 0.0 0.0 
680.73 715.188 -521.669 123.752 -83.5993 124.065 -1.892 0.339724 1.05048 -1.89143 0.272195 1.06996 -1.88559 0.00492785 1.10403 -1.88725 0.179216 1.0894 -12.5294 2.10069 -2.11084 -12.533 5.33054 -1.41393 -0.0 0.0 -0.0 -1.84958 18.4352 -0.639901 -25.8752 -26.3867 72.8585 0.282271 -7.96017 0.0196397 17.6764 0.280568 -2.23163 -1.36964 28.9356 3.89408 -0.0 0.0 -0.0 10.3475 26.1555 -19.6256 23.026 16.6357 -57.2113 2.27058 48.3541 -1.01945 -21.2493 1.21161 -2.41633 -3.85399 -12.6032 19.5152 0.0 0.0 0.0 24.7914 13.9364 -9.31203 -21.0153 0.282189 3.19456 14.3957 -5.23387 -2.06447 -10.2532 0.0 0.0 -0.0 0.0 -0.0 -24.2705 19.6259 -3.47948 4.25029 0.198216 0.621851 39.4325 -7.55098 4.81295 -24.4895 0.0 0.0 0.0 0.0 0.0 
